<?xml version="1.0" standalone="no"?>
<!DOCTYPE svg PUBLIC "-//W3C//DTD SVG 20010904//EN"
 "http://www.w3.org/TR/2001/REC-SVG-20010904/DTD/svg10.dtd">
<svg version="1.0" xmlns="http://www.w3.org/2000/svg"
 width="1231.000000pt" height="1231.000000pt" viewBox="0 0 1231.000000 1231.000000"
 preserveAspectRatio="xMidYMid meet">

<g transform="translate(0.000000,1231.000000) scale(0.100000,-0.100000)"
fill="#000000" stroke="none">
<path d="M0 6155 l0 -6155 6155 0 6155 0 0 6155 0 6155 -6155 0 -6155 0 0
-6155z m6635 4534 c56 -16 109 -73 129 -139 14 -46 16 -119 16 -499 0 -268 -5
-464 -11 -491 -15 -66 -51 -114 -106 -141 l-48 -24 -761 -5 c-744 -5 -762 -5
-784 -25 -53 -47 -50 90 -50 -2412 l0 -2327 -387 -670 c-213 -369 -441 -765
-508 -881 -67 -115 -184 -318 -260 -450 -76 -132 -172 -299 -214 -371 -42 -72
-168 -291 -281 -487 -113 -195 -206 -354 -208 -352 -4 3 56 144 416 983 138
320 253 591 257 601 5 16 -3 19 -68 24 -41 3 -93 11 -118 18 -55 17 -111 72
-127 125 -9 32 -12 707 -12 3065 0 1771 -4 3040 -10 3063 -5 22 -20 51 -35 65
l-25 26 -758 5 -757 5 -50 25 c-27 14 -60 40 -72 58 -40 61 -44 115 -41 603 3
453 4 465 25 504 26 49 57 79 103 99 31 13 307 15 2370 16 1674 0 2346 -3
2375 -11z m2176 -71 c-103 -237 -665 -1547 -668 -1559 -4 -15 25 -17 309 -22
391 -6 546 -29 810 -117 537 -180 926 -585 1082 -1128 68 -236 101 -527 94
-839 -3 -155 -6 -184 -25 -224 -22 -50 -67 -89 -122 -108 -47 -15 -1169 -16
-1226 0 -25 7 -56 27 -81 54 -52 53 -64 103 -64 258 0 214 -28 371 -87 496
-73 153 -196 232 -437 278 -78 16 -153 18 -541 18 -489 0 -553 -5 -701 -59
-38 -14 -70 -24 -72 -22 -1 2 19 41 46 87 27 46 175 302 329 569 154 267 475
823 713 1235 238 413 466 809 508 880 99 172 143 245 147 245 3 0 -4 -19 -14
-42z m-2020 -3594 c-14 -156 -14 -440 0 -523 33 -198 183 -352 430 -442 168
-61 320 -89 684 -124 576 -56 1168 -193 1615 -374 235 -96 410 -224 575 -422
227 -272 364 -588 420 -969 36 -244 44 -888 14 -1160 -73 -678 -409 -1183
-960 -1444 -187 -88 -384 -144 -639 -182 -98 -14 -232 -18 -905 -21 -829 -5
-1011 1 -1230 37 -515 85 -910 320 -1187 705 -140 196 -254 498 -304 810 -21
131 -32 679 -15 743 16 58 71 117 128 136 67 23 1152 24 1229 1 100 -30 144
-104 144 -247 1 -146 18 -332 40 -423 64 -273 217 -393 555 -434 139 -17 946
-14 1065 3 387 59 532 229 571 668 14 161 7 412 -15 488 -52 183 -171 313
-385 420 -167 83 -346 128 -616 155 -743 73 -1605 288 -1939 484 -102 60 -246
180 -318 266 l-56 67 107 187 c60 102 157 272 218 376 60 105 259 450 443 768
183 317 335 576 337 573 2 -2 -1 -57 -6 -122z"/>
</g>
</svg>
